<svg xmlns="http://www.w3.org/2000/svg" width="720" height="330" viewBox="0 0 720 330" role="img" aria-label="figkit node components"><title>figkit node components</title><defs></defs><rect x="23" y="43" width="74" height="34.01" rx="10" fill="#D7D5EB" stroke="#5C57AD" stroke-width="1.75"/><g fill="#1C1B19"><text x="40.84" y="64.73" font-family="Inter" font-size="13" font-weight="500">indigo</text></g><rect x="109" y="43" width="74" height="34.01" rx="10" fill="#CADED1" stroke="#2C7651" stroke-width="1.75"/><g fill="#1C1B19"><text x="128.04" y="64.73" font-family="Inter" font-size="13" font-weight="500">green</text></g><rect x="195" y="43" width="74" height="34.01" rx="10" fill="#CAD9E7" stroke="#2C639F" stroke-width="1.75"/><g fill="#1C1B19"><text x="218.62" y="64.73" font-family="Inter" font-size="13" font-weight="500">blue</text></g><rect x="281" y="43" width="74" height="34.01" rx="10" fill="#F4D8C3" stroke="#C2601F" stroke-width="1.75"/><g fill="#1C1B19"><text x="296.14" y="64.73" font-family="Inter" font-size="13" font-weight="500">orange</text></g><rect x="367" y="43" width="74" height="34.01" rx="10" fill="#EDCEDA" stroke="#AB3C71" stroke-width="1.75"/><g fill="#1C1B19"><text x="390.8" y="64.73" font-family="Inter" font-size="13" font-weight="500">pink</text></g><rect x="453" y="43" width="74" height="34.01" rx="10" fill="#C6DFDB" stroke="#1F7A75" stroke-width="1.75"/><g fill="#1C1B19"><text x="478.64" y="64.73" font-family="Inter" font-size="13" font-weight="500">teal</text></g><rect x="539" y="43" width="74" height="34.01" rx="10" fill="#EBDBC3" stroke="#A16C1E" stroke-width="1.75"/><g fill="#1C1B19"><text x="556.19" y="64.73" font-family="Inter" font-size="13" font-weight="500">amber</text></g><rect x="625" y="43" width="74" height="34.01" rx="10" fill="#EDCCC6" stroke="#A93528" stroke-width="1.75"/><g fill="#1C1B19"><text x="651.77" y="64.73" font-family="Inter" font-size="13" font-weight="500">red</text></g><rect x="25" y="129" width="90" height="34.01" rx="10" fill="#D7D5EB" stroke="#5C57AD" stroke-width="1.75"/><g fill="#1C1B19"><text x="55.28" y="150.73" font-family="Inter" font-size="13" font-weight="500">solid</text></g><rect x="131" y="129" width="90" height="34.01" rx="10" fill="#D7D5EB" stroke="#5C57AD" stroke-width="2.98"/><g fill="#1C1B19"><text x="156.03" y="150.73" font-family="Inter" font-size="13" font-weight="500">strong</text></g><rect x="237" y="129" width="90" height="34.01" rx="10" fill="none" stroke="#5C57AD" stroke-width="1.75"/><g fill="#544F98"><text x="260.94" y="150.73" font-family="Inter" font-size="13" font-weight="500">outline</text></g><rect x="343" y="129" width="90" height="34.01" rx="10" fill="#544F98"/><g fill="#FBFAF7"><text x="372.77" y="150.73" font-family="Inter" font-size="13" font-weight="500">filled</text></g><rect x="449" y="129" width="90" height="34.01" rx="10" fill="none" stroke="#B8B7B4" stroke-width="1.75" stroke-dasharray="5 4"/><g fill="#5E5A53"><text x="474.33" y="150.73" font-family="Inter" font-size="13" font-weight="500">muted</text></g><rect x="555" y="129" width="90" height="34.01" rx="10" fill="#F3F2EF" stroke="#D3D2CF" stroke-width="1.75"/><g fill="#1C1B19"><text x="582.42" y="150.73" font-family="Inter" font-size="13" font-weight="500">ghost</text></g><rect x="24" y="219" width="104" height="34.01" rx="17" fill="#D7D5EB" stroke="#5C57AD" stroke-width="1.75"/><g fill="#1C1B19"><text x="46.18" y="240.73" font-family="Inter" font-size="13" font-weight="500">indigo pill</text></g><rect x="142" y="219" width="104" height="34.01" rx="17" fill="#CADED1" stroke="#2C7651" stroke-width="1.75"/><g fill="#1C1B19"><text x="165.37" y="240.73" font-family="Inter" font-size="13" font-weight="500">green pill</text></g><rect x="260" y="219" width="104" height="34.01" rx="17" fill="#CAD9E7" stroke="#2C639F" stroke-width="1.75"/><g fill="#1C1B19"><text x="287.95" y="240.73" font-family="Inter" font-size="13" font-weight="500">blue pill</text></g><rect x="378" y="219" width="104" height="34.01" rx="17" fill="#F4D8C3" stroke="#C2601F" stroke-width="1.75"/><g fill="#1C1B19"><text x="397.48" y="240.73" font-family="Inter" font-size="13" font-weight="500">orange pill</text></g><circle cx="520" cy="236" r="20" fill="#EDCEDA" stroke="#AB3C71" stroke-width="1.75"/><g fill="#1C1B19"><text x="514.54" y="241.46" font-family="Inter" font-size="15" font-weight="600">A</text></g><circle cx="570" cy="236" r="20" fill="#C6DFDB" stroke="#1F7A75" stroke-width="1.75"/><g fill="#1C1B19"><text x="564.54" y="241.46" font-family="Inter" font-size="15" font-weight="600">A</text></g><circle cx="620" cy="236" r="20" fill="#EBDBC3" stroke="#A16C1E" stroke-width="1.75"/><g fill="#1C1B19"><text x="614.54" y="241.46" font-family="Inter" font-size="15" font-weight="600">A</text></g><circle cx="670" cy="236" r="20" fill="#EDCCC6" stroke="#A93528" stroke-width="1.75"/><g fill="#1C1B19"><text x="664.54" y="241.46" font-family="Inter" font-size="15" font-weight="600">A</text></g><rect x="20" y="278.98" width="141.2" height="34.04" rx="10" fill="#CAD9E7" stroke="#2C639F" stroke-width="1.75"/><g fill="#1C1B19"><text x="36" y="300.75" font-family="JetBrains Mono" font-size="13" font-weight="500">pyproject.toml</text></g><rect x="200" y="278.98" width="164.6" height="34.04" rx="10" fill="#F3F2EF" stroke="#D3D2CF" stroke-width="1.75"/><g fill="#1C1B19"><text x="216" y="300.75" font-family="JetBrains Mono" font-size="13" font-weight="400">code or file name</text></g><g fill="#5E5A53"><text x="20" y="21.64" font-family="Inter" font-size="10.5" font-weight="600" letter-spacing="0.84">BOXES, ONE PER HUE</text></g><g fill="#5E5A53"><text x="20" y="107.64" font-family="Inter" font-size="10.5" font-weight="600" letter-spacing="0.84">STYLES</text></g><g fill="#5E5A53"><text x="20" y="197.64" font-family="Inter" font-size="10.5" font-weight="600" letter-spacing="0.84">PILLS AND CIRCLES</text></g></svg>
