<svg xmlns="http://www.w3.org/2000/svg" width="640" height="330" viewBox="0 0 640 330" role="img" aria-label="The two steps that link uv's files: resolve turns the ranges in pyproject.toml (pandas&gt;=3.0.5) into exact pins in uv.lock (pandas 3.0.5 with hashes and markers), and install turns uv.lock into packages in .venv (pandas and numpy in site-packages)."><title>The two steps that link uv's files: resolve turns the ranges in pyproject.toml (pandas&gt;=3.0.5) into exact pins in uv.lock (pandas 3.0.5 with hashes and markers), and install turns uv.lock into packages in .venv (pandas and numpy in site-packages).</title><defs><path id="g-mono400-a" d="M495 0Q448 0 428 24Q408 48 403 84H398Q381 39 343.5 13.5Q306 -12 243 -12Q162 -12 114 30Q66 72 66 145Q66 217 118.5 256Q171 295 288 295H398V346Q398 403 366 431.5Q334 460 275 460Q223 460 190 439.5Q157 419 137 384L83 424Q93 444 110 463Q127 482 152 496.5Q177 511 209 519.5Q241 528 280 528Q371 528 424.5 482Q478 436 478 354V70H550V0ZM257 55Q288 55 313.5 62.5Q339 70 358 82.5Q377 95 387.5 112.5Q398 130 398 150V235H288Q216 235 183 215Q150 195 150 157V136Q150 96 178.5 75.5Q207 55 257 55Z"/><path id="g-mono400-c" d="M318 -12Q262 -12 218.5 7.5Q175 27 145 62Q115 97 99.5 147Q84 197 84 258Q84 319 100 369Q116 419 146 454.5Q176 490 219 509Q262 528 317 528Q392 528 439 495Q486 462 508 409L444 375Q430 415 397.5 437Q365 459 317 459Q282 459 254.5 447.5Q227 436 208 415Q189 394 179.5 365Q170 336 170 302V214Q170 180 179.5 151Q189 122 208 101Q227 80 255 68.5Q283 57 319 57Q371 57 405 81Q439 105 459 147L516 108Q493 56 444.5 22Q396 -12 318 -12Z"/><path id="g-mono400-d" d="M425 84H421Q371 -12 262 -12Q167 -12 113.5 59Q60 130 60 258Q60 386 113.5 457Q167 528 262 528Q371 528 421 432H425V740H505V0H425ZM293 59Q320 59 344 66Q368 73 386 86.5Q404 100 414.5 119.5Q425 139 425 165V351Q425 377 414.5 396.5Q404 416 386 429.5Q368 443 344 450Q320 457 293 457Q223 457 184.5 414.5Q146 372 146 302V214Q146 144 184.5 101.5Q223 59 293 59Z"/><path id="g-mono400-e" d="M309 -12Q253 -12 208.5 7Q164 26 132.5 61.5Q101 97 84 146.5Q67 196 67 257Q67 319 84.5 369Q102 419 133 454.5Q164 490 207.5 509Q251 528 304 528Q356 528 398.5 509Q441 490 471 456.5Q501 423 517 377Q533 331 533 276V238H151V214Q151 180 162 151Q173 122 193.5 101Q214 80 243.5 68.5Q273 57 309 57Q361 57 399 81Q437 105 457 147L516 107Q493 55 439.5 21.5Q386 -12 309 -12ZM304 462Q271 462 243 450Q215 438 194.5 417Q174 396 162.5 367.5Q151 339 151 305V298H447V309Q447 343 436.5 371Q426 399 407.5 419.5Q389 440 362.5 451Q336 462 304 462Z"/><path id="g-mono400-equal" d="M62 372V440H538V372ZM62 172V240H538V172Z"/><path id="g-mono400-five" d="M501 625H189L169 358H176Q202 393 234 413.5Q266 434 322 434Q368 434 406.5 419.5Q445 405 473 377Q501 349 517 309.5Q533 270 533 219Q533 168 517 125.5Q501 83 470 52.5Q439 22 395 5Q351 -12 295 -12Q251 -12 216.5 -2Q182 8 155.5 25Q129 42 109 63Q89 84 73 107L136 155Q150 134 164.5 117Q179 100 198 87.5Q217 75 241 68Q265 61 297 61Q369 61 407.5 100Q446 139 446 208V216Q446 285 407 324Q368 363 295 363Q245 363 217.5 346Q190 329 167 304L96 314L121 698H501Z"/><path id="g-mono400-g" d="M561 -59Q561 -137 496 -174.5Q431 -212 301 -212Q176 -212 121.5 -179Q67 -146 67 -84Q67 -42 89 -19Q111 4 151 15V27Q129 38 117 55Q105 72 105 98Q105 138 131.5 158Q158 178 198 188V192Q150 213 123.5 254Q97 295 97 350Q97 389 111 422Q125 455 151.5 478.5Q178 502 215 515Q252 528 297 528Q355 528 399 507V516Q399 546 413 566Q427 586 461 586H556V516H440V481Q468 457 483 424Q498 391 498 350Q498 311 483.5 278Q469 245 443 221.5Q417 198 379.5 185Q342 172 297 172Q284 172 272 173Q260 174 248 176Q236 174 223 169.5Q210 165 199 157.5Q188 150 181 140Q174 130 174 117Q174 94 197 86.5Q220 79 257 79H371Q471 79 516 41.5Q561 4 561 -59ZM486 -63Q486 -32 461 -13.5Q436 5 374 5H195Q143 -16 143 -65Q143 -99 170 -123.5Q197 -148 260 -148H338Q408 -148 447 -126.5Q486 -105 486 -63ZM297 234Q357 234 385.5 262Q414 290 414 336V365Q414 411 385.5 438.5Q357 466 297 466Q237 466 209 438.5Q181 411 181 365V336Q181 290 209 262Q237 234 297 234Z"/><path id="g-mono400-greater" d="M85 99 440 300V308L85 509V594L515 345V265L85 16Z"/><path id="g-mono400-h" d="M98 740H178V432H182Q190 451 202 468.5Q214 486 231.5 499Q249 512 273 520Q297 528 329 528Q410 528 459 476.5Q508 425 508 331V0H428V317Q428 388 397 422.5Q366 457 306 457Q282 457 259 451Q236 445 218 433Q200 421 189 402Q178 383 178 358V0H98Z"/><path id="g-mono400-hyphen" d="M155 262V346H445V262Z"/><path id="g-mono400-i" d="M332 630Q297 630 283 644.5Q269 659 269 681V697Q269 719 283 733.5Q297 748 332 748Q367 748 381 733.5Q395 719 395 697V681Q395 659 381 644.5Q367 630 332 630ZM106 68H292V448H106V516H372V68H546V0H106Z"/><path id="g-mono400-k" d="M105 740H185V273H189L279 358L451 516H549L335 314L574 0H475L274 268L185 187V0H105Z"/><path id="g-mono400-m" d="M54 0V516H128V456H132Q144 486 166 507Q188 528 231 528Q276 528 298 505.5Q320 483 325 447H328Q342 482 368 505Q394 528 440 528Q503 528 524.5 484Q546 440 546 358V0H472V345Q472 411 458.5 436.5Q445 462 409 462Q377 462 357 441.5Q337 421 337 379V0H263V345Q263 411 249.5 436.5Q236 462 201 462Q169 462 148.5 441.5Q128 421 128 379V0Z"/><path id="g-mono400-n" d="M98 0V516H178V432H182Q190 451 202 468.5Q214 486 231.5 499Q249 512 273 520Q297 528 329 528Q410 528 459 476.5Q508 425 508 331V0H428V317Q428 388 397 422.5Q366 457 306 457Q282 457 259 451Q236 445 218 433Q200 421 189 402Q178 383 178 358V0Z"/><path id="g-mono400-p" d="M95 516H175V432H179Q229 528 338 528Q433 528 486.5 457Q540 386 540 258Q540 130 486.5 59Q433 -12 338 -12Q229 -12 179 84H175V-200H95ZM307 59Q377 59 415.5 101.5Q454 144 454 214V302Q454 372 415.5 414.5Q377 457 307 457Q280 457 256 450Q232 443 214 429.5Q196 416 185.5 396.5Q175 377 175 351V165Q175 139 185.5 119.5Q196 100 214 86.5Q232 73 256 66Q280 59 307 59Z"/><path id="g-mono400-period" d="M300 -9Q259 -9 242.5 8Q226 25 226 51V69Q226 95 242.5 112Q259 129 300 129Q341 129 357.5 112Q374 95 374 69V51Q374 25 357.5 8Q341 -9 300 -9Z"/><path id="g-mono400-plus" d="M262 62V271H62V339H262V548H338V339H538V271H338V62Z"/><path id="g-mono400-r" d="M77 68H228V448H77V516H308V386H313Q329 447 373.5 481.5Q418 516 487 516H559V436H462Q393 436 350.5 396Q308 356 308 291V68H508V0H77Z"/><path id="g-mono400-s" d="M306 -12Q225 -12 166.5 15.5Q108 43 67 89L121 136Q158 97 202 76Q246 55 308 55Q368 55 406.5 76.5Q445 98 445 144Q445 164 437.5 177.5Q430 191 417 199Q404 207 388 211.5Q372 216 354 219L273 231Q246 235 214.5 242Q183 249 157 264.5Q131 280 113.5 306Q96 332 96 374Q96 413 111.5 441.5Q127 470 155 489.5Q183 509 221 518.5Q259 528 304 528Q374 528 425.5 506Q477 484 514 445L462 396Q453 407 439.5 418.5Q426 430 406.5 439.5Q387 449 361 455Q335 461 301 461Q240 461 207.5 440Q175 419 175 379Q175 359 182.5 345.5Q190 332 203 324Q216 316 232.5 311.5Q249 307 266 304L347 292Q375 288 406 281Q437 274 463 258.5Q489 243 506.5 217Q524 191 524 149Q524 72 464.5 30Q405 -12 306 -12Z"/><path id="g-mono400-slash" d="M90 -138 438 760H510L162 -138Z"/><path id="g-mono400-t" d="M325 0Q266 0 238.5 33Q211 66 211 118V448H39V516H167Q193 516 203.5 526.5Q214 537 214 563V698H291V516H526V448H291V68H526V0Z"/><path id="g-mono400-three" d="M270 402Q343 402 379.5 434.5Q416 467 416 518V525Q416 581 380.5 609Q345 637 288 637Q232 637 197.5 612.5Q163 588 141 548L78 596Q91 617 110 637.5Q129 658 154.5 674Q180 690 213.5 700Q247 710 290 710Q335 710 374 698.5Q413 687 442 664.5Q471 642 487.5 609Q504 576 504 534Q504 500 493.5 473Q483 446 464.5 426Q446 406 421 392Q396 378 368 371V367Q397 361 424 347.5Q451 334 472 312.5Q493 291 505.5 260.5Q518 230 518 191Q518 146 500.5 108.5Q483 71 451.5 44.5Q420 18 375.5 3Q331 -12 277 -12Q231 -12 195.5 -2Q160 8 132.5 25Q105 42 84.5 63Q64 84 48 107L111 155Q125 134 140 117Q155 100 174.5 87.5Q194 75 219 68Q244 61 277 61Q351 61 390.5 95Q430 129 430 192V200Q430 262 391.5 296Q353 330 276 330H193V402Z"/><path id="g-mono400-u" d="M422 84H418Q410 65 398 47.5Q386 30 368.5 17Q351 4 327 -4Q303 -12 271 -12Q190 -12 141 39.5Q92 91 92 185V516H172V199Q172 128 203 93.5Q234 59 294 59Q318 59 341 65Q364 71 382 83Q400 95 411 113.5Q422 132 422 158V516H502V0H422Z"/><path id="g-mono400-y" d="M467 516H547L291 -113Q282 -135 271 -151.5Q260 -168 245 -178.5Q230 -189 209 -194.5Q188 -200 159 -200H83V-132H203L261 10L53 516H135L222 300L299 104H303L380 300Z"/><path id="g-mono400-zero" d="M300 -12Q236 -12 190 12.5Q144 37 114 83Q84 129 70 196Q56 263 56 349Q56 434 70 501.5Q84 569 114 615Q144 661 190 685.5Q236 710 300 710Q364 710 410 685.5Q456 661 486 615Q516 569 530 501.5Q544 434 544 349Q544 263 530 196Q516 129 486 83Q456 37 410 12.5Q364 -12 300 -12ZM300 61Q342 61 372 77.5Q402 94 420.5 124Q439 154 448 196.5Q457 239 457 292V406Q457 458 448 501Q439 544 420.5 574Q402 604 372 620.5Q342 637 300 637Q258 637 228 620.5Q198 604 179.5 574Q161 544 152 501Q143 458 143 406V292Q143 239 152 196.5Q161 154 179.5 124Q198 94 228 77.5Q258 61 300 61ZM300 290Q265 290 251.5 304Q238 318 238 338V360Q238 380 251.5 394Q265 408 300 408Q335 408 348.5 394Q362 380 362 360V338Q362 318 348.5 304Q335 290 300 290Z"/><path id="g-mono500-c" d="M319 -12Q261 -12 215.5 7Q170 26 138.5 61Q107 96 90.5 146Q74 196 74 258Q74 320 90.5 370Q107 420 138.5 455Q170 490 215.5 509Q261 528 318 528Q398 528 446.5 494Q495 460 519 406L434 360Q420 396 391.5 417Q363 438 318 438Q256 438 222 400.5Q188 363 188 301V215Q188 154 222 116Q256 78 320 78Q368 78 398.5 100Q429 122 447 160L527 111Q502 57 451 22.5Q400 -12 319 -12Z"/><path id="g-mono500-e" d="M311 -12Q252 -12 205 7Q158 26 126 61Q94 96 77 145.5Q60 195 60 257Q60 319 77.5 369Q95 419 126.5 454.5Q158 490 203 509Q248 528 303 528Q357 528 401 509.5Q445 491 476 457Q507 423 523.5 376Q540 329 540 272V231H170V214Q170 153 208 114.5Q246 76 313 76Q363 76 398.5 97.5Q434 119 456 155L524 95Q498 50 444.5 19Q391 -12 311 -12ZM303 445Q274 445 249.5 435Q225 425 207.5 406.5Q190 388 180 363Q170 338 170 308V301H429V311Q429 372 394.5 408.5Q360 445 303 445Z"/><path id="g-mono500-j" d="M98 -112H326V428H92V516H435V-69Q435 -127 402.5 -163.5Q370 -200 302 -200H98ZM381 610Q339 610 322.5 627Q306 644 306 669V690Q306 715 322.5 732Q339 749 380 749Q422 749 438.5 732Q455 715 455 690V669Q455 644 438.5 627Q422 610 381 610Z"/><path id="g-mono500-k" d="M88 740H197V293H202L283 376L428 516H557L348 313L580 0H449L269 251L197 184V0H88Z"/><path id="g-mono500-l" d="M75 88H246V652H75V740H355V88H526V0H75Z"/><path id="g-mono500-m" d="M44 0V516H137V449H142Q154 482 176.5 505Q199 528 241 528Q282 528 304.5 505.5Q327 483 333 444H337Q351 479 376 503.5Q401 528 448 528Q508 528 531.5 486Q555 444 555 363V0H462V349Q462 403 449 423.5Q436 444 407 444Q381 444 363.5 426.5Q346 409 346 374V0H253V349Q253 403 240.5 423.5Q228 444 199 444Q172 444 154.5 426.5Q137 409 137 374V0Z"/><path id="g-mono500-n" d="M84 0V516H193V428H198Q206 448 218.5 466.5Q231 485 249 498.5Q267 512 291 520Q315 528 347 528Q425 528 473 477Q521 426 521 332V0H412V316Q412 439 305 439Q284 439 264 433.5Q244 428 228 417Q212 406 202.5 389Q193 372 193 350V0Z"/><path id="g-mono500-o" d="M300 -12Q243 -12 197.5 7Q152 26 120.5 61Q89 96 72 146Q55 196 55 258Q55 320 72 370Q89 420 120.5 455Q152 490 197.5 509Q243 528 300 528Q357 528 402.5 509Q448 490 479.5 455Q511 420 528 370Q545 320 545 258Q545 196 528 146Q511 96 479.5 61Q448 26 402.5 7Q357 -12 300 -12ZM300 74Q360 74 395.5 110.5Q431 147 431 219V297Q431 369 395.5 405.5Q360 442 300 442Q240 442 204.5 405.5Q169 369 169 297V219Q169 147 204.5 110.5Q240 74 300 74Z"/><path id="g-mono500-p" d="M79 516H188V428H194Q217 475 255 501.5Q293 528 350 528Q441 528 495 460Q549 392 549 258Q549 124 495 56Q441 -12 350 -12Q293 -12 255 14.5Q217 41 194 88H188V-200H79ZM305 77Q367 77 400.5 115Q434 153 434 216V300Q434 363 400.5 401Q367 439 305 439Q281 439 260 433Q239 427 223 415Q207 403 197.5 385.5Q188 368 188 344V172Q188 148 197.5 130.5Q207 113 223 101Q239 89 260 83Q281 77 305 77Z"/><path id="g-mono500-period" d="M300 -10Q252 -10 232.5 10Q213 30 213 59V85Q213 114 232.5 134Q252 154 300 154Q348 154 367.5 134Q387 114 387 85V59Q387 30 367.5 10Q348 -10 300 -10Z"/><path id="g-mono500-r" d="M76 88H213V428H76V516H322V379H328Q335 406 348 431Q361 456 381 474.5Q401 493 430 504.5Q459 516 498 516H560V412H458Q398 412 360 376.5Q322 341 322 281V88H509V0H76Z"/><path id="g-mono500-t" d="M331 0Q263 0 231 36.5Q199 73 199 131V428H40V516H153Q182 516 194 527.5Q206 539 206 569V698H308V516H528V428H308V88H528V0Z"/><path id="g-mono500-u" d="M407 88H402Q394 68 381.5 49.5Q369 31 351 17.5Q333 4 309 -4Q285 -12 253 -12Q175 -12 127 39Q79 90 79 184V516H188V200Q188 77 295 77Q316 77 336 82.5Q356 88 372 99Q388 110 397.5 126.5Q407 143 407 166V516H516V0H407Z"/><path id="g-mono500-v" d="M233 0 48 516H161L232 298L299 91H305L372 298L443 516H552L367 0Z"/><path id="g-mono500-y" d="M451 516H561L311 -100Q291 -150 258.5 -175Q226 -200 165 -200H78V-112H200L247 7L39 516H153L235 300L299 123H305L369 300Z"/><path id="g-sans500-a" d="M520 0H459Q429 0 407.5 13.5Q386 27 375 52Q364 77 364 111V120L395 87H360Q345 39 305 13.5Q265 -12 208 -12Q128 -12 84 30Q40 72 40 143Q40 195 65.5 229.5Q91 264 140 281.5Q189 299 262 299H356V343Q356 390 330 416.5Q304 443 249 443Q204 443 174.5 422.5Q145 402 125 372L60 431Q86 475 133.5 503.5Q181 532 256 532Q356 532 410.5 484.5Q465 437 465 350V89H520ZM356 229H264Q207 229 179 211Q151 193 151 159V141Q151 107 175 89Q199 71 239 71Q273 71 299 81Q325 91 340.5 110Q356 129 356 154Z"/><path id="g-sans500-e" d="M283 -12Q209 -12 155 21.5Q101 55 71.5 116Q42 177 42 260Q42 343 71 403.5Q100 464 153 498Q206 532 280 532Q357 532 408.5 497.5Q460 463 486 404Q512 345 512 273V232H156V215Q156 155 191.5 116.5Q227 78 293 78Q341 78 374 99Q407 120 429 156L494 93Q464 46 409.5 17Q355 -12 283 -12ZM282 447Q244 447 215.5 429.5Q187 412 171.5 381.5Q156 351 156 311V304H398V314Q398 354 384 384Q370 414 344 430.5Q318 447 282 447Z"/><path id="g-sans500-i" d="M133 613Q99 613 83.5 629Q68 645 68 670V687Q68 712 83.5 728Q99 744 133 744Q167 744 182 728Q197 712 197 687V670Q197 645 182 629Q167 613 133 613ZM78 0V520H187V0Z"/><path id="g-sans500-l" d="M259 0H190Q134 0 106 29.5Q78 59 78 109V740H187V89H259Z"/><path id="g-sans500-n" d="M187 0H78V520H187V434H192Q209 476 243.5 504Q278 532 338 532Q418 532 462.5 479Q507 426 507 330V0H398V317Q398 378 374.5 408.5Q351 439 300 439Q271 439 245.5 429.5Q220 420 203.5 400Q187 380 187 350Z"/><path id="g-sans500-o" d="M281 -12Q208 -12 154.5 21.5Q101 55 71.5 116Q42 177 42 260Q42 343 71.5 404Q101 465 154.5 498.5Q208 532 281 532Q353 532 406.5 498.5Q460 465 489.5 404Q519 343 519 260Q519 177 489.5 116Q460 55 406.5 21.5Q353 -12 281 -12ZM281 79Q337 79 370.5 113.5Q404 148 404 216V304Q404 372 370.5 406.5Q337 441 281 441Q226 441 191.5 406.5Q157 372 157 304V216Q157 148 191.5 113.5Q226 79 281 79Z"/><path id="g-sans500-r" d="M187 0H78V520H187V417H192Q200 443 217.5 466.5Q235 490 264 505Q293 520 335 520H364V415H321Q278 415 248 405Q218 395 202.5 377Q187 359 187 332Z"/><path id="g-sans500-s" d="M243 -12Q170 -12 119.5 14Q69 40 32 86L102 150Q131 116 166.5 96Q202 76 249 76Q297 76 320.5 94.5Q344 113 344 146Q344 171 327.5 188Q311 205 270 211L222 217Q170 225 131 243Q92 261 71.5 292.5Q51 324 51 372Q51 448 104.5 490Q158 532 244 532Q291 532 326 522Q361 512 388 493.5Q415 475 438 449L371 385Q351 409 318.5 426.5Q286 444 244 444Q200 444 178 426.5Q156 409 156 379Q156 349 175.5 334Q195 319 236 312L284 306Q370 293 409.5 255.5Q449 218 449 155Q449 105 423.5 67.5Q398 30 352 9Q306 -12 243 -12Z"/><path id="g-sans500-t" d="M317 0H222Q166 0 136.5 30.5Q107 61 107 114V431H26V520H70Q97 520 107.5 532Q118 544 118 571V662H216V520H325V431H216V89H317Z"/><path id="g-sans500-v" d="M320 0H191L14 520H122L202 283L255 101H261L314 283L394 520H497Z"/><path id="g-sans600-A" d="M651 0H514L458 178H210L155 0H21L255 698H419ZM426 291 369 467 336 578H331L298 467L242 291Z"/><path id="g-sans600-D" d="M82 0V698H336Q427 698 495 659Q563 620 600 542.5Q637 465 637 349Q637 233 600 155.5Q563 78 495 39Q427 0 336 0ZM214 117H336Q385 117 421 136.5Q457 156 477 195.5Q497 235 497 294V404Q497 464 477 503Q457 542 421 561.5Q385 581 336 581H214Z"/><path id="g-sans600-E" d="M542 0H82V698H542V581H214V411H504V295H214V117H542Z"/><path id="g-sans600-F" d="M214 0H82V698H531V581H214V411H490V295H214Z"/><path id="g-sans600-H" d="M505 0V295H214V0H82V698H214V411H505V698H637V0Z"/><path id="g-sans600-I" d="M370 0H53V106H145V592H53V698H370V592H277V106H370Z"/><path id="g-sans600-L" d="M489 0H82V698H214V117H489Z"/><path id="g-sans600-O" d="M356 -12Q265 -12 196 29Q127 70 89.5 150.5Q52 231 52 349Q52 467 89.5 547.5Q127 628 196 669Q265 710 356 710Q448 710 516.5 669Q585 628 622.5 547.5Q660 467 660 349Q660 231 622.5 150.5Q585 70 516.5 29Q448 -12 356 -12ZM356 105Q407 105 443.5 128Q480 151 500 193.5Q520 236 520 295V403Q520 463 500 505Q480 547 443.5 570Q407 593 356 593Q307 593 270 570Q233 547 212.5 505Q192 463 192 403V295Q192 236 212.5 193.5Q233 151 270 128Q307 105 356 105Z"/><path id="g-sans600-S" d="M299 -12Q210 -12 146.5 20Q83 52 39 104L128 190Q164 148 208.5 126Q253 104 307 104Q368 104 399 131Q430 158 430 202Q430 226 421.5 243.5Q413 261 392 273Q371 285 335 291L269 301Q199 312 152.5 338Q106 364 83 406Q60 448 60 504Q60 567 91 613Q122 659 178.5 684.5Q235 710 313 710Q392 710 451 683.5Q510 657 552 607L462 522Q436 554 399 574Q362 594 306 594Q250 594 221 572.5Q192 551 192 512Q192 485 202 468Q212 451 234 441.5Q256 432 289 425L354 413Q425 401 471 375Q517 349 539 308.5Q561 268 561 210Q561 144 530.5 94Q500 44 441 16Q382 -12 299 -12Z"/><path id="g-sans600-T" d="M555 581H356V0H224V581H26V698H555Z"/><path id="g-sans600-W" d="M338 0H188L26 698H158L227 363L270 149H273L323 363L403 698H549L629 363L678 149H681L725 363L796 698H922L755 0H606L517 369L474 553H472L427 369Z"/></defs><path d="M216 58 L292 58" fill="none" stroke="#BABBBC" stroke-width="1.5" stroke-linecap="round" stroke-linejoin="round" stroke-dasharray="6 5"/><path d="M216 168 L292 168" fill="none" stroke="#BABBBC" stroke-width="1.5" stroke-linecap="round" stroke-linejoin="round" stroke-dasharray="6 5"/><path d="M216 278 L292 278" fill="none" stroke="#BABBBC" stroke-width="1.5" stroke-linecap="round" stroke-linejoin="round" stroke-dasharray="6 5"/><path d="M128 86 L128 132.8" fill="none" stroke="#686D77" stroke-width="1.75" stroke-linecap="round" stroke-linejoin="round"/><path d="M128 140 L123.05 131 L132.95 131 Z" fill="#686D77"/><path d="M128 196 L128 242.8" fill="none" stroke="#686D77" stroke-width="1.75" stroke-linecap="round" stroke-linejoin="round"/><path d="M128 250 L123.05 241 L132.95 241 Z" fill="#686D77"/><rect x="40" y="35" width="176" height="46" rx="10" fill="#D4E4F7" stroke="#286BBD" stroke-width="1.75"/><g fill="#1A1C20"><use href="#g-mono500-p" transform="translate(69.2 62.89) scale(0.014 -0.014)"/><use href="#g-mono500-y" transform="translate(77.6 62.89) scale(0.014 -0.014)"/><use href="#g-mono500-p" transform="translate(86 62.89) scale(0.014 -0.014)"/><use href="#g-mono500-r" transform="translate(94.4 62.89) scale(0.014 -0.014)"/><use href="#g-mono500-o" transform="translate(102.8 62.89) scale(0.014 -0.014)"/><use href="#g-mono500-j" transform="translate(111.2 62.89) scale(0.014 -0.014)"/><use href="#g-mono500-e" transform="translate(119.6 62.89) scale(0.014 -0.014)"/><use href="#g-mono500-c" transform="translate(128 62.89) scale(0.014 -0.014)"/><use href="#g-mono500-t" transform="translate(136.4 62.89) scale(0.014 -0.014)"/><use href="#g-mono500-period" transform="translate(144.8 62.89) scale(0.014 -0.014)"/><use href="#g-mono500-t" transform="translate(153.2 62.89) scale(0.014 -0.014)"/><use href="#g-mono500-o" transform="translate(161.6 62.89) scale(0.014 -0.014)"/><use href="#g-mono500-m" transform="translate(170 62.89) scale(0.014 -0.014)"/><use href="#g-mono500-l" transform="translate(178.4 62.89) scale(0.014 -0.014)"/></g><rect x="292" y="38" width="133.4" height="40" rx="10" fill="#F8F8F8" stroke="#E1E1DA" stroke-width="1.75"/><g fill="#1A1C20"><use href="#g-mono400-p" transform="translate(308 62.54) scale(0.013 -0.013)"/><use href="#g-mono400-a" transform="translate(315.8 62.54) scale(0.013 -0.013)"/><use href="#g-mono400-n" transform="translate(323.6 62.54) scale(0.013 -0.013)"/><use href="#g-mono400-d" transform="translate(331.4 62.54) scale(0.013 -0.013)"/><use href="#g-mono400-a" transform="translate(339.2 62.54) scale(0.013 -0.013)"/><use href="#g-mono400-s" transform="translate(347 62.54) scale(0.013 -0.013)"/><use href="#g-mono400-greater" transform="translate(354.8 62.54) scale(0.013 -0.013)"/><use href="#g-mono400-equal" transform="translate(362.6 62.54) scale(0.013 -0.013)"/><use href="#g-mono400-three" transform="translate(370.4 62.54) scale(0.013 -0.013)"/><use href="#g-mono400-period" transform="translate(378.2 62.54) scale(0.013 -0.013)"/><use href="#g-mono400-zero" transform="translate(386 62.54) scale(0.013 -0.013)"/><use href="#g-mono400-period" transform="translate(393.8 62.54) scale(0.013 -0.013)"/><use href="#g-mono400-five" transform="translate(401.6 62.54) scale(0.013 -0.013)"/></g><rect x="40" y="145" width="176" height="46" rx="10" fill="#F1E4D2" stroke="#A16C1F" stroke-width="1.75"/><g fill="#1A1C20"><use href="#g-mono500-u" transform="translate(98.6 172.89) scale(0.014 -0.014)"/><use href="#g-mono500-v" transform="translate(107 172.89) scale(0.014 -0.014)"/><use href="#g-mono500-period" transform="translate(115.4 172.89) scale(0.014 -0.014)"/><use href="#g-mono500-l" transform="translate(123.8 172.89) scale(0.014 -0.014)"/><use href="#g-mono500-o" transform="translate(132.2 172.89) scale(0.014 -0.014)"/><use href="#g-mono500-c" transform="translate(140.6 172.89) scale(0.014 -0.014)"/><use href="#g-mono500-k" transform="translate(149 172.89) scale(0.014 -0.014)"/></g><rect x="292" y="148" width="273.8" height="40" rx="10" fill="#F8F8F8" stroke="#E1E1DA" stroke-width="1.75"/><g fill="#1A1C20"><use href="#g-mono400-p" transform="translate(308 172.54) scale(0.013 -0.013)"/><use href="#g-mono400-a" transform="translate(315.8 172.54) scale(0.013 -0.013)"/><use href="#g-mono400-n" transform="translate(323.6 172.54) scale(0.013 -0.013)"/><use href="#g-mono400-d" transform="translate(331.4 172.54) scale(0.013 -0.013)"/><use href="#g-mono400-a" transform="translate(339.2 172.54) scale(0.013 -0.013)"/><use href="#g-mono400-s" transform="translate(347 172.54) scale(0.013 -0.013)"/><use href="#g-mono400-three" transform="translate(362.6 172.54) scale(0.013 -0.013)"/><use href="#g-mono400-period" transform="translate(370.4 172.54) scale(0.013 -0.013)"/><use href="#g-mono400-zero" transform="translate(378.2 172.54) scale(0.013 -0.013)"/><use href="#g-mono400-period" transform="translate(386 172.54) scale(0.013 -0.013)"/><use href="#g-mono400-five" transform="translate(393.8 172.54) scale(0.013 -0.013)"/><use href="#g-mono400-plus" transform="translate(409.4 172.54) scale(0.013 -0.013)"/><use href="#g-mono400-h" transform="translate(425 172.54) scale(0.013 -0.013)"/><use href="#g-mono400-a" transform="translate(432.8 172.54) scale(0.013 -0.013)"/><use href="#g-mono400-s" transform="translate(440.6 172.54) scale(0.013 -0.013)"/><use href="#g-mono400-h" transform="translate(448.4 172.54) scale(0.013 -0.013)"/><use href="#g-mono400-e" transform="translate(456.2 172.54) scale(0.013 -0.013)"/><use href="#g-mono400-s" transform="translate(464 172.54) scale(0.013 -0.013)"/><use href="#g-mono400-plus" transform="translate(479.6 172.54) scale(0.013 -0.013)"/><use href="#g-mono400-m" transform="translate(495.2 172.54) scale(0.013 -0.013)"/><use href="#g-mono400-a" transform="translate(503 172.54) scale(0.013 -0.013)"/><use href="#g-mono400-r" transform="translate(510.8 172.54) scale(0.013 -0.013)"/><use href="#g-mono400-k" transform="translate(518.6 172.54) scale(0.013 -0.013)"/><use href="#g-mono400-e" transform="translate(526.4 172.54) scale(0.013 -0.013)"/><use href="#g-mono400-r" transform="translate(534.2 172.54) scale(0.013 -0.013)"/><use href="#g-mono400-s" transform="translate(542 172.54) scale(0.013 -0.013)"/></g><rect x="40" y="255" width="176" height="46" rx="10" fill="#D5E7DE" stroke="#2C7652" stroke-width="1.75"/><g fill="#1A1C20"><use href="#g-mono500-period" transform="translate(107 282.89) scale(0.014 -0.014)"/><use href="#g-mono500-v" transform="translate(115.4 282.89) scale(0.014 -0.014)"/><use href="#g-mono500-e" transform="translate(123.8 282.89) scale(0.014 -0.014)"/><use href="#g-mono500-n" transform="translate(132.2 282.89) scale(0.014 -0.014)"/><use href="#g-mono500-v" transform="translate(140.6 282.89) scale(0.014 -0.014)"/></g><rect x="292" y="258" width="305" height="40" rx="10" fill="#F8F8F8" stroke="#E1E1DA" stroke-width="1.75"/><g fill="#1A1C20"><use href="#g-mono400-p" transform="translate(308 282.54) scale(0.013 -0.013)"/><use href="#g-mono400-a" transform="translate(315.8 282.54) scale(0.013 -0.013)"/><use href="#g-mono400-n" transform="translate(323.6 282.54) scale(0.013 -0.013)"/><use href="#g-mono400-d" transform="translate(331.4 282.54) scale(0.013 -0.013)"/><use href="#g-mono400-a" transform="translate(339.2 282.54) scale(0.013 -0.013)"/><use href="#g-mono400-s" transform="translate(347 282.54) scale(0.013 -0.013)"/><use href="#g-mono400-slash" transform="translate(354.8 282.54) scale(0.013 -0.013)"/><use href="#g-mono400-a" transform="translate(370.4 282.54) scale(0.013 -0.013)"/><use href="#g-mono400-n" transform="translate(378.2 282.54) scale(0.013 -0.013)"/><use href="#g-mono400-d" transform="translate(386 282.54) scale(0.013 -0.013)"/><use href="#g-mono400-n" transform="translate(401.6 282.54) scale(0.013 -0.013)"/><use href="#g-mono400-u" transform="translate(409.4 282.54) scale(0.013 -0.013)"/><use href="#g-mono400-m" transform="translate(417.2 282.54) scale(0.013 -0.013)"/><use href="#g-mono400-p" transform="translate(425 282.54) scale(0.013 -0.013)"/><use href="#g-mono400-y" transform="translate(432.8 282.54) scale(0.013 -0.013)"/><use href="#g-mono400-slash" transform="translate(440.6 282.54) scale(0.013 -0.013)"/><use href="#g-mono400-i" transform="translate(456.2 282.54) scale(0.013 -0.013)"/><use href="#g-mono400-n" transform="translate(464 282.54) scale(0.013 -0.013)"/><use href="#g-mono400-s" transform="translate(479.6 282.54) scale(0.013 -0.013)"/><use href="#g-mono400-i" transform="translate(487.4 282.54) scale(0.013 -0.013)"/><use href="#g-mono400-t" transform="translate(495.2 282.54) scale(0.013 -0.013)"/><use href="#g-mono400-e" transform="translate(503 282.54) scale(0.013 -0.013)"/><use href="#g-mono400-hyphen" transform="translate(510.8 282.54) scale(0.013 -0.013)"/><use href="#g-mono400-p" transform="translate(518.6 282.54) scale(0.013 -0.013)"/><use href="#g-mono400-a" transform="translate(526.4 282.54) scale(0.013 -0.013)"/><use href="#g-mono400-c" transform="translate(534.2 282.54) scale(0.013 -0.013)"/><use href="#g-mono400-k" transform="translate(542 282.54) scale(0.013 -0.013)"/><use href="#g-mono400-a" transform="translate(549.8 282.54) scale(0.013 -0.013)"/><use href="#g-mono400-g" transform="translate(557.6 282.54) scale(0.013 -0.013)"/><use href="#g-mono400-e" transform="translate(565.4 282.54) scale(0.013 -0.013)"/><use href="#g-mono400-s" transform="translate(573.2 282.54) scale(0.013 -0.013)"/></g><g fill="#686D77"><use href="#g-sans600-F" transform="translate(40 21.33) scale(0.0105 -0.0105)"/><use href="#g-sans600-I" transform="translate(46.9 21.33) scale(0.0105 -0.0105)"/><use href="#g-sans600-L" transform="translate(52.18 21.33) scale(0.0105 -0.0105)"/><use href="#g-sans600-E" transform="translate(58.49 21.33) scale(0.0105 -0.0105)"/></g><g fill="#686D77"><use href="#g-sans600-W" transform="translate(292 21.33) scale(0.0105 -0.0105)"/><use href="#g-sans600-H" transform="translate(302.8 21.33) scale(0.0105 -0.0105)"/><use href="#g-sans600-A" transform="translate(311.19 21.33) scale(0.0105 -0.0105)"/><use href="#g-sans600-T" transform="translate(318.41 21.33) scale(0.0105 -0.0105)"/><use href="#g-sans600-I" transform="translate(328.66 21.33) scale(0.0105 -0.0105)"/><use href="#g-sans600-T" transform="translate(333.88 21.33) scale(0.0105 -0.0105)"/><use href="#g-sans600-H" transform="translate(344.13 21.33) scale(0.0105 -0.0105)"/><use href="#g-sans600-O" transform="translate(352.52 21.33) scale(0.0105 -0.0105)"/><use href="#g-sans600-L" transform="translate(360.84 21.33) scale(0.0105 -0.0105)"/><use href="#g-sans600-D" transform="translate(367.15 21.33) scale(0.0105 -0.0105)"/><use href="#g-sans600-S" transform="translate(375.22 21.33) scale(0.0105 -0.0105)"/></g><g fill="#686D77"><use href="#g-sans500-r" transform="translate(140 117.54) scale(0.013 -0.013)"/><use href="#g-sans500-e" transform="translate(144.91 117.54) scale(0.013 -0.013)"/><use href="#g-sans500-s" transform="translate(152.13 117.54) scale(0.013 -0.013)"/><use href="#g-sans500-o" transform="translate(158.55 117.54) scale(0.013 -0.013)"/><use href="#g-sans500-l" transform="translate(165.86 117.54) scale(0.013 -0.013)"/><use href="#g-sans500-v" transform="translate(169.46 117.54) scale(0.013 -0.013)"/><use href="#g-sans500-e" transform="translate(176.01 117.54) scale(0.013 -0.013)"/></g><g fill="#686D77"><use href="#g-sans500-i" transform="translate(140 227.54) scale(0.013 -0.013)"/><use href="#g-sans500-n" transform="translate(143.44 227.54) scale(0.013 -0.013)"/><use href="#g-sans500-s" transform="translate(150.99 227.54) scale(0.013 -0.013)"/><use href="#g-sans500-t" transform="translate(157.32 227.54) scale(0.013 -0.013)"/><use href="#g-sans500-a" transform="translate(162.06 227.54) scale(0.013 -0.013)"/><use href="#g-sans500-l" transform="translate(169.2 227.54) scale(0.013 -0.013)"/><use href="#g-sans500-l" transform="translate(172.82 227.54) scale(0.013 -0.013)"/></g></svg>
